<svg width="18" height="17" viewBox="0 0 18 17" fill="none" xmlns="http://www.w3.org/2000/svg">
<path d="M13.996 10.3555L12.1579 10.1601C11.7164 10.113 11.2822 10.2545 10.971 10.5442L9.63945 11.7839C7.59144 10.8137 5.91251 9.25728 4.87041 7.34377L6.20922 6.09728C6.5204 5.80756 6.67237 5.4033 6.62171 4.9923L6.41185 3.29439C6.325 2.61387 5.70988 2.10181 4.97173 2.10181H3.71976C2.902 2.10181 2.22175 2.73515 2.2724 3.49652C2.65595 9.25055 7.59868 13.8457 13.7717 14.2028C14.5894 14.2499 15.2697 13.6166 15.2697 12.8552V11.6896C15.2769 11.0091 14.7269 10.4364 13.996 10.3555Z" fill="#212121"/>
</svg>
